<svg xmlns="http://www.w3.org/2000/svg" width="351.78" height="400" viewBox="0 0 351.78 400">
  <defs>
    <style>
      .cls-1 {
        fill: #efb0b7;
      }

      .cls-2 {
        fill: #ffe9eb;
      }

      .cls-3 {
        fill: #db7c87;
      }
    </style>
  </defs>
  <g id="Layer_2" data-name="Layer 2">
    <g id="Layer_1-2" data-name="Layer 1">
      <path class="cls-1" d="M30,92.68A20,20,0,0,0,2.68,100h0A20,20,0,0,0,10,127.32L135.89,200,10,272.68A20,20,0,0,0,2.68,300h0A20,20,0,0,0,30,307.32l125.89-72.68V165.36Z"/>
      <circle class="cls-2" cx="175.89" cy="200" r="101.89"/>
      <path class="cls-3" d="M341.77,272.68,215.89,200l125.88-72.68A20,20,0,0,0,349.09,100h0a20,20,0,0,0-27.32-7.32L195.89,165.36V20a20,20,0,0,0-40,0V380a20,20,0,0,0,40,0V234.64l125.88,72.68A20,20,0,0,0,349.09,300h0A20,20,0,0,0,341.77,272.68Z"/>
    </g>
  </g>
</svg>
